HIERARCHY
ROOT Hips
{
  OFFSET 57.8838 95.319 338.509
  CHANNELS 6 Xposition Yposition Zposition Zrotation Xrotation Yrotation
  JOINT LeftUpLeg
  {
    OFFSET 8.64259 1.95398 -2.38835
    CHANNELS 3 Zrotation Xrotation Yrotation
    JOINT LeftLeg
    {
      OFFSET 43.7702 0 0
      CHANNELS 3 Zrotation Xrotation Yrotation
      JOINT LeftFoot
      {
        OFFSET 40.6238 0 0
        CHANNELS 3 Zrotation Xrotation Yrotation
        JOINT LeftToeBase
        {
          OFFSET 12.7242 0 0
          CHANNELS 3 Zrotation Xrotation Yrotation
          End Site
          {
            OFFSET 0 0 0
          }
        }
      }
    }
  }
  JOINT RightUpLeg
  {
    OFFSET -8.2249 1.95398 -2.59336
    CHANNELS 3 Zrotation Xrotation Yrotation
    JOINT RightLeg
    {
      OFFSET 43.5653 0 0
      CHANNELS 3 Zrotation Xrotation Yrotation
      JOINT RightFoot
      {
        OFFSET 40.6238 0 0
        CHANNELS 3 Zrotation Xrotation Yrotation
        JOINT RightToeBase
        {
          OFFSET 12.7242 0 0
          CHANNELS 3 Zrotation Xrotation Yrotation
          End Site
          {
            OFFSET 0 0 0
          }
        }
      }
    }
  }
  JOINT Spine
  {
    OFFSET 0.165834 0.87714 6.61349
    CHANNELS 3 Zrotation Xrotation Yrotation
    JOINT Spine1
    {
      OFFSET 7.38963 1.71661e-005 0
      CHANNELS 3 Zrotation Xrotation Yrotation
      JOINT Spine2
      {
        OFFSET 11.9445 1.14441e-005 0
        CHANNELS 3 Zrotation Xrotation Yrotation
        JOINT Spine3
        {
          OFFSET 14.7254 4.19617e-005 0
          CHANNELS 3 Zrotation Xrotation Yrotation
          JOINT Spine4
          {
            OFFSET 10.9679 0 0
            CHANNELS 3 Zrotation Xrotation Yrotation
            JOINT RightShoulder
            {
              OFFSET 2.46616 -1.6653 3.69651
              CHANNELS 3 Zrotation Xrotation Yrotation
              JOINT RightArm
              {
                OFFSET 13.0012 0 0
                CHANNELS 3 Zrotation Xrotation Yrotation
                JOINT RightForeArm
                {
                  OFFSET 28.7848 1.62311e-005 0
                  CHANNELS 3 Zrotation Xrotation Yrotation
                  JOINT RightHand
                  {
                    OFFSET 26.5688 1.62095e-005 0
                    CHANNELS 3 Zrotation Xrotation Yrotation
                    End Site
                    {
                      OFFSET 0 0 0
                    }
                  }
                }
              }
            }
            JOINT LeftShoulder
            {
              OFFSET 2.38034 -1.29275 -3.7523
              CHANNELS 3 Zrotation Xrotation Yrotation
              JOINT LeftArm
              {
                OFFSET 16.3182 6.07031e-005 0
                CHANNELS 3 Zrotation Xrotation Yrotation
                JOINT LeftForeArm
                {
                  OFFSET 27.0901 0 0
                  CHANNELS 3 Zrotation Xrotation Yrotation
                  JOINT LeftHand
                  {
                    OFFSET 24.5451 1.51738e-005 0
                    CHANNELS 3 Zrotation Xrotation Yrotation
                    End Site
                    {
                      OFFSET 0 0 0
                    }
                  }
                }
              }
            }
            JOINT Neck
            {
              OFFSET 5.0226 -0.0266342 0
              CHANNELS 3 Zrotation Xrotation Yrotation
              JOINT Head
              {
                OFFSET 6.69364 2.86102e-005 0
                CHANNELS 3 Zrotation Xrotation Yrotation
                End Site
                {
                  OFFSET 0 0 0
                }
              }
            }
          }
        }
      }
    }
  }
}
MOTION
Frames:	18
Frame Time:	0.0416667
48.7128 72.9138 -11.092 -129.449 -53.4268 -136.664 176.399 28.497 99.3207 -52.5651 22.8008 6.4189 52.8682 -8.70761 -4.9086 57.735 15.1431 13.5828 167.281 33.518 100.781 -92.385 -16.3758 -0.996414 62.9656 -10.1769 -13.2935 36.5717 -10.4971 -1.01249 -0.0831168 10.6306 -88.7395 5.59841 0.359861 2.46397 -6.07483 0.467902 2.44575 -28.591 -0.39704 2.45825 -8.5784 -0.397043 2.45826 95.9921 -50.1957 -91.5593 25.0225 -13.3625 -9.38009 -1.8499 8.79845 -57.3098 -13.6426 -0.551975 -0.615753 -85.3096 -47.0784 85.3645 -8.1333 -22.7873 -21.7539 -6.53894 26.8405 -0.750434 5.5883 -0.729736 -13.5698 2.02591 -16.798 2.54511 -2.82595 -16.8108 -21.2563 
50.135 70.8957 -1.9075 -114.954 -49.3513 -124.543 -178.978 33.3349 97.9485 -65.7434 20.522 4.54762 58.9033 0.159223 4.69696 57.9941 14.2144 9.47378 165.727 43.6715 99.8211 -103.91 -15.1945 -2.27402 62.7324 -5.7205 -7.61407 32.8752 -5.61513 -3.12884 0.00137671 10.8525 -88.6059 5.15328 0.578849 2.72423 -6.52034 0.698152 2.69614 -29.0325 -0.266302 2.77224 -9.01989 -0.266304 2.77224 96.4633 -47.4531 -91.1508 25.2839 -20.872 -13.416 -20.6132 15.5411 -92.2053 -14.9651 -1.15004 4.02251 -86.6712 -48.7324 83.5142 -11.5039 -23.8674 -31.3413 -4.57136 24.159 -0.44795 7.42884 -0.887358 -13.6346 11.5894 -16.5479 6.07596 -3.79669 -17.1934 -22.5266 
50.2052 70.8767 4.67855 -106.69 -51.7303 -118.809 -175.382 38.0143 94.4777 -71.3624 21.0582 3.08314 61.8586 5.66608 8.56017 61.3809 16.4938 11.3152 151.277 53.5267 107.454 -100.471 -16.208 -0.717617 63.7666 -7.28795 -7.87294 37.3878 -11.6289 -1.24303 -0.374185 11.2146 -88.6113 4.43864 -0.182395 2.72395 -7.23514 -0.062394 2.72933 -29.7498 -0.992342 2.54342 -9.73719 -0.992359 2.54341 95.5752 -49.8594 -92.2473 24.5067 -24.1354 -15.8231 -26.5244 22.3319 -115.882 -17.6412 -1.93546 7.48193 -89.0912 -49.554 80.0043 -21.6297 -20.8935 -55.1967 -0.952598 26.514 0.482771 7.35573 -0.842228 -13.4392 22.8772 -16.2929 8.33952 -5.92066 -17.6504 -23.5884 
47.5711 73.6479 10.1434 -101.053 -55.5229 -116.55 -174.252 35.4983 90.9047 -66.8392 22.5874 1.88732 62.7513 8.05257 10.2852 63.3813 17.899 12.3284 138.97 55.9143 112.855 -87.6179 -11.6219 2.65532 66.4678 -12.2042 -7.24724 40.5304 -16.1865 -2.58083 -0.930813 11.4401 -88.6869 4.00109 -1.33034 2.57631 -7.67183 -1.21567 2.63232 -30.1982 -2.04294 2.05769 -10.1856 -2.04296 2.05768 95.015 -52.7543 -92.7241 25.5551 -29.8939 -12.7702 -34.5259 21.8636 -100.03 -17.2738 -1.60963 5.68796 -91.229 -47.0902 76.1907 -27.863 -10.3265 -70.463 2.21502 22.4817 -8.07921 8.40675 -0.952248 -13.4848 29.2899 -16.2386 10.432 -6.90167 -18.5245 -23.3824 
41.4139 77.2679 16.0877 -92.1545 -53.3646 -110.239 -173.225 28.2627 91.9873 -58.7019 21.7181 0.959022 64.1807 7.48343 5.65393 65.0729 19.1881 13.3521 141.935 53.5368 111.592 -79.68 -10.8327 4.66521 64.4338 -10.0983 -8.55776 37.5816 -12.4593 -4.50967 -1.29587 11.0451 -88.7392 4.79907 -2.07241 2.50331 -6.87279 -1.96026 2.59204 -29.4104 -2.72883 1.76482 -9.39769 -2.72883 1.76482 93.303 -53.899 -95.1017 27.4353 -34.5 -7.05981 -28.6174 10.6379 -81.434 -24.9549 -2.12087 4.56624 -90.0666 -44.0975 77.276 -22.7339 -5.78476 -71.4417 5.98458 25.8547 -26.2416 6.45651 -1.11618 -17.5771 30.4234 -14.0156 13.5598 -8.02183 -17.5044 -23.3406 
32.4402 80.2574 22.7572 -85.2576 -46.8307 -104.327 -178.219 24.0145 94.0845 -60.7438 19.394 4.1444 57.9316 -2.789 -3.13965 59.417 16.2454 13.8849 152.133 43.8712 105.626 -74.673 -9.57607 5.14336 64.6067 -4.47358 0.0144706 27.2859 2.07385 -1.0743 -1.04878 10.4177 -89.1916 6.04998 -1.75502 1.6461 -5.6209 -1.68089 1.72173 -28.1619 -2.16857 1.04248 -8.14927 -2.16858 1.04247 91.916 -53.8683 -97.1466 30.1704 -27.975 0.509822 -15.8859 5.59136 -68.9106 -24.0589 -1.65944 2.89139 -89.0643 -45.8892 79.2759 -18.8281 -5.22778 -57.376 8.06982 24.7543 -37.5918 3.87966 -0.819031 -17.6198 27.6467 -11.9661 12.8647 -7.17222 -15.4265 -19.0996 
22.7614 80.6854 29.1071 -82.4915 -38.4772 -101.36 173.844 28.7515 92.3322 -79.5181 11.2895 7.01052 54.9578 -2.07167 10.9108 49.8134 11.2713 16.8775 159.364 30.0705 102.594 -67.2146 -14.4814 6.84946 67.0278 -10.3046 -4.67152 32.928 -5.33123 3.28815 -0.646728 10.1939 -89.6847 6.48982 -1.15788 0.662234 -5.1807 -1.12761 0.712546 -27.7204 -1.30337 0.28359 -7.70783 -1.30338 0.283575 90.9127 -54.6133 -98.4738 25.4763 -20.539 -2.32233 -5.66978 3.69983 -58.5356 -22.5036 -0.776162 -1.32813 -87.4923 -50.6864 82.6071 -16.4109 -10.5914 -38.1913 3.19891 30.5078 -25.0137 6.64481 -1.10271 -17.1364 30.3406 -9.50901 8.85234 -9.82892 -11.8048 -11.8145 
13.9071 80.7962 34.1508 -77.2039 -19.3774 -95.6777 178.974 44.2174 89.9842 -96.4605 5.62468 6.26049 58.8253 6.02133 17.34 51.2619 11.9771 16.0635 169.806 23.6253 103.947 -66.0122 -16.5398 2.8647 69.1132 -6.78139 3.7434 28.913 -0.283082 3.06115 0.581854 10.0965 -89.9817 6.68093 1.17007 -0.00924408 -4.98949 1.16854 -0.0607365 -27.5286 1.11874 0.34288 -7.51596 1.11874 0.342896 92.2175 -51.7645 -97.085 22.1352 -15.7391 -16.3395 -8.15387 2.30324 -64.222 -17.6703 -0.767744 -0.154876 -84.4124 -58.6103 88.0793 -6.69991 -20.5683 -15.1033 -7.29274 42.3522 -3.37085 8.65714 -1.03836 -14.1632 34.4382 -4.85338 10.4955 -10.7746 -8.48431 -9.54701 
2.52439 82.0227 38.9955 -72.7643 -8.31984 -99.3599 -166.136 60.1212 73.9113 -92.2418 18.4453 3.19616 60.7089 6.21421 13.4675 57.7826 16.202 17.6386 174.917 11.1532 94.8848 -52.7215 -22.6754 -0.554233 71.2065 -10.7432 4.75804 30.7463 -2.57707 4.83198 1.04204 9.73878 -89.3286 7.38388 2.37101 1.21255 -4.28544 2.42204 1.10696 -26.8278 1.89705 1.86915 -6.81516 1.89704 1.86912 95.2698 -44.393 -93.4904 22.2252 -7.5054 -30.6191 -11.1963 -0.295765 -90.2915 -14.6628 -1.00931 2.71463 -83.8601 -55.5159 88.5117 -3.8963 -22.0102 15.0714 -9.35373 45.4591 -0.57038 6.79756 -0.895228 -14.5726 33.4039 -4.11913 6.56713 -10.7644 -6.49061 -3.35551 
-12.2203 84.3694 41.983 -70.2261 -4.32294 -101.073 -153.676 61.8282 64.5197 -74.0642 15.8697 -2.63097 60.4079 2.43375 6.4082 62.6376 18.5488 15.7054 177.288 -1.98545 89.7282 -32.9142 -24.4552 -3.6972 56.1768 11.5496 16.4105 16.7754 15.7498 0.532839 1.34643 9.47459 -88.9388 7.8909 3.15119 1.92767 -3.77745 3.23297 1.78703 -26.321 2.42635 2.78561 -6.30837 2.42634 2.7856 97.9422 -37.6753 -89.7856 21.0111 -0.236261 -39.6786 -12.1358 8.19542 -115.235 -14.0767 -1.42088 6.81655 -85.8175 -49.7632 84.9915 -10.2566 -19.5955 27.218 -8.61386 44.0331 -3.87785 6.59707 -1.05532 -16.7993 29.0685 -5.59367 2.03821 -9.16147 -6.12048 -0.59853 
-28.6038 84.2198 43.6726 -71.4794 -6.37682 -97.3558 -163.923 50.1197 76.4857 -66.8431 18.0501 -3.82042 61.0331 3.47966 7.70558 60.5976 15.8926 10.6582 176.339 2.84393 92.6804 -54.0448 -19.0762 -1.34962 48.1971 19.5365 11.5618 10.598 25.3034 -2.23529 0.932955 9.67306 -89.2827 7.51558 2.17406 1.29803 -4.15412 2.2291 1.20106 -26.6937 1.68351 1.89141 -6.68103 1.68353 1.89143 96.6721 -41.8895 -91.4794 17.9702 -19.465 -26.0776 -18.6669 19.4195 -102.679 -9.36005 -0.808499 4.81861 -84.5065 -54.8558 87.5384 -9.64722 -16.0643 10.5513 -4.12788 34.1165 -13.6805 3.63793 -0.737967 -16.4954 28.9201 -5.23973 -0.301323 -9.50619 -4.89141 0.139709 
-44.7337 83.6707 44.5696 -75.8124 -5.62898 -102.3 -171.953 28.3446 76.4413 -57.6576 20.6214 -3.3583 63.2407 9.34534 14.6917 64.1513 18.7601 13.6491 173.854 21.4368 93.6575 -99.0902 -15.5108 -2.67347 56.8665 6.89285 2.10166 17.6554 15.9162 -3.37274 0.49039 10.0717 -88.7216 6.70743 1.52501 2.45853 -4.96483 1.6317 2.38907 -27.4835 0.715929 2.80293 -7.47083 0.715958 2.80293 95.2436 -49.1001 -92.8677 30.2259 -25.3908 -6.99069 -18.059 0.158022 -59.4494 -11.9674 -0.234 -3.01158 -81.5834 -58.4706 91.9588 -5.78315 -16.3592 -18.1829 -1.20948 21.2509 -25.3339 10.0239 -1.29007 -15.3818 31.6438 -3.13234 2.68968 -10.3977 -3.91963 -2.46653 
-60.6718 83.9085 45.287 -72.3105 -13.9279 -99.6848 179.244 16.9443 79.5051 -45.9088 21.8557 1.07437 63.4745 7.68969 9.4555 68.1887 20.5318 12.2012 165.208 53.9979 100.437 -111.797 -8.89438 -3.58445 61.8681 -2.30169 -3.62899 31.2697 -3.49197 -6.58629 -0.238231 9.08757 -89.0941 8.70494 -0.0733093 1.81374 -2.96716 0.00661051 1.81521 -25.4941 -0.614999 1.70791 -5.48141 -0.61498 1.70793 95.3109 -50.872 -92.5383 41.6858 -14.3266 19.9652 -16.6525 -12.9928 -44.0042 -15.1263 -0.584597 -0.651216 -82.0857 -53.3357 90.9093 -13.9925 -16.4015 -42.3994 8.46692 13.2471 -49.0382 11.961 -1.5709 -16.0988 31.032 -2.84487 3.03616 -11.9004 -3.6824 -3.33798 
-81.2368 86.498 45.8385 -71.214 -11.4973 -90.7643 -179.477 -0.367889 90.2258 -30.6787 25.3732 5.57982 51.9078 -9.15041 -2.0482 51.9656 11.5751 12.7133 166.956 64.2899 103.546 -83.8649 -9.3131 -1.3515 66.4824 -8.23388 -2.96678 40.8684 -18.2092 -8.19196 -0.507431 8.60584 -90.1981 9.66941 -1.10146 -0.327112 -2.001 -1.11478 -0.278315 -24.5397 -0.952197 -0.643049 -4.52701 -0.95218 -0.643036 93.2525 -45.4479 -96.6419 46.4026 -11.6833 38.0215 -7.77948 0.195303 -44.8697 -10.4551 -0.157042 -4.01856 -80.321 -49.4047 93.286 -13.4143 -11.5424 -41.8498 17.2807 6.21155 -75.5231 13.911 -1.85625 -16.7044 33.0835 -0.48127 -2.35403 -17.2809 0.0351539 3.72241 
-102.4 87.7894 46.63 -74.7319 -5.48067 -88.0627 178.7 0.02836 89.9247 -54.7849 19.5754 6.57967 44.1416 -14.9164 -1.3042 42.4377 6.71275 14.3866 169.759 58.1449 98.4811 -60.3056 -12.153 3.01289 66.1989 -3.3919 3.54498 42.8463 -22.8412 -12.3425 -0.364282 9.15448 -90.5912 8.55513 -0.9886 -1.09851 -3.11593 -1.03596 -1.05394 -25.6485 -0.612782 -1.3448 -5.63587 -0.612784 -1.3448 92.4838 -48.0177 -97.3873 32.103 -4.97905 25.4973 4.89994 8.03642 -44.0044 -10.7058 -0.0764554 -4.59197 -80.0843 -52.4536 93.7869 -9.65397 -3.5792 -27.2333 12.8581 8.76535 -70.024 12.2838 -1.36564 -14.0939 39.1523 0.949078 -7.02831 -22.8531 2.39271 10.4429 
-123.911 85.8691 47.0673 -82.4362 4.19834 -82.536 -175.464 12.7175 89.3237 -99.1559 12.3963 5.99552 49.2254 -8.70148 4.6893 43.704 7.20627 12.2752 165.463 37.4405 106.51 -60.8759 -13.2652 5.58496 69.8328 -7.78118 4.026 36.3053 -10.116 -0.900007 0.469881 9.9101 -91.3305 7.05046 0.367054 -2.63852 -4.62315 0.250614 -2.65211 -27.1401 1.14284 -2.40646 -7.12746 1.14286 -2.40646 94.306 -52.0899 -93.882 22.5055 -2.41363 1.25806 5.7481 6.90311 -50.1387 -8.22134 -0.0143926 -5.28718 -80.6338 -58.0244 93.2466 -13.9227 -12.9846 -17.4542 10.9098 39.223 -31.2476 6.31773 -1.01817 -16.5332 36.067 2.96821 -9.00085 -19.2616 4.50202 15.9936 
-145.581 82.2278 46.7567 -81.4575 10.1621 -80.1527 -173.969 44.3832 85.114 -116.574 8.03117 6.10162 54.4772 -1.59242 12.1782 44.3037 7.20495 9.20016 170.648 17.2627 108.213 -54.1463 -13.8824 4.50725 73.116 -25.0586 -10.2875 46.8235 -24.3166 -1.49868 0.946455 9.34327 -91.4512 8.19854 1.25167 -2.95104 -3.47531 1.12064 -3.00321 -25.9956 2.08053 -2.43889 -5.98295 2.08053 -2.43888 96.2206 -48.1236 -91.4548 24.1167 -6.14644 -17.6991 -0.331205 8.06954 -71.9102 -8.7539 -0.27697 -1.67799 -81.8064 -59.2227 91.6972 -8.37772 -20.5595 0.48936 -5.61667 68.5009 -3.72131 3.47804 -0.641813 -15.4078 33.303 3.47411 -9.77928 -17.3436 5.29347 16.5244 
-169.934 83.3554 46.292 -81.4515 11.327 -84.3079 -176.825 60.6471 82.0513 -89.083 7.25415 4.39949 58.2133 2.80553 14.5327 44.7026 7.40399 9.20983 176.598 2.40489 90.8663 -42.1311 -16.0565 -1.63122 71.2956 -6.88479 7.83631 41.0594 -18.1714 -6.9034 1.05397 8.75495 -90.6808 9.3782 1.79584 -1.48015 -2.29233 1.72895 -1.55775 -24.8349 2.15758 -0.871901 -4.8223 2.15759 -0.871894 97.7025 -46.4214 -89.2634 22.1915 -16.5657 -19.5723 -10.1487 8.3781 -92.851 -11.0123 -0.658794 2.01526 -83.2102 -52.8131 89.2072 -5.68134 -19.885 16.2813 -11.9508 79.7387 1.12983 6.21604 -0.84824 -16.0874 26.6141 1.65709 -11.9404 -15.3246 4.08426 16.8961 
